<svg width="23" height="20" viewBox="0 0 23 20" fill="none" xmlns="http://www.w3.org/2000/svg">
    <path d="M11.7715 17.9917L19.8715 9.89175C21.8615 7.89175 22.1515 4.62175 20.2715 2.53175C19.8 2.00506 19.2261 1.58003 18.5848 1.28263C17.9435 0.985235 17.2483 0.821714 16.5417 0.802059C15.8351 0.782405 15.1319 0.90703 14.475 1.16832C13.8182 1.42961 13.2215 1.82208 12.7215 2.32175L11.2015 3.85175L9.89151 2.53175C7.89151 0.541749 4.62151 0.251749 2.53151 2.13175C2.00481 2.60323 1.57979 3.17716 1.28239 3.81845C0.984991 4.45974 0.82147 5.15494 0.801815 5.86156C0.782161 6.56818 0.906786 7.27139 1.16808 7.92822C1.42937 8.58506 1.82184 9.18172 2.32151 9.68175L10.6315 17.9917C10.7832 18.142 10.988 18.2262 11.2015 18.2262C11.415 18.2262 11.6198 18.142 11.7715 17.9917V17.9917Z" stroke="#A1A1A1" stroke-width="1.6" stroke-linecap="round" stroke-linejoin="round"/>
</svg>
