<svg width="39" height="40" viewBox="0 0 39 40" fill="none" xmlns="http://www.w3.org/2000/svg">
    <path fill-rule="evenodd" clip-rule="evenodd" d="M6.11731 7.00351C14.836 6.99415 23.5548 7.00351 32.2735 7.03155C32.3028 7.05958 32.3321 7.08762 32.3614 7.11565C32.4005 7.41468 32.4005 7.71376 32.3614 8.01279C32.3126 8.0595 32.2637 8.10626 32.2148 8.15297C23.5352 8.19037 14.8556 8.19037 6.17595 8.15297C6.1271 8.10626 6.07819 8.0595 6.02934 8.01279C5.99022 7.71376 5.99022 7.41468 6.02934 7.11565C6.07139 7.08515 6.10071 7.04775 6.11731 7.00351Z" fill="#252A32"/>
    <path fill-rule="evenodd" clip-rule="evenodd" d="M15.7937 8.7417H22.5967C22.6065 9.65773 22.5967 10.5735 22.5673 11.4892C22.4989 11.5546 22.4305 11.62 22.3621 11.6854C21.3064 11.6948 20.2508 11.7041 19.1952 11.7135C18.0953 11.7221 17.0006 11.6941 15.911 11.6294C15.8743 11.5873 15.845 11.5405 15.823 11.4892C15.7937 10.5735 15.7839 9.65773 15.7937 8.7417Z" fill="#262B32"/>
    <path fill-rule="evenodd" clip-rule="evenodd" d="M20.8375 14.5731C20.7649 14.6692 20.7258 14.7813 20.7202 14.9095C19.6797 14.9274 18.6436 14.9087 17.612 14.8534C17.3855 14.0059 17.1313 13.1648 16.8496 12.3302C18.4135 12.2555 19.9774 12.2555 21.5413 12.3302C21.2702 13.0681 21.0356 13.8157 20.8375 14.5731Z" fill="#242931"/>
    <path fill-rule="evenodd" clip-rule="evenodd" d="M20.8374 14.573C20.8271 14.7054 20.8076 14.8362 20.7787 14.9655C19.7017 15.0021 18.6461 14.9648 17.6118 14.8534C18.6434 14.9086 19.6795 14.9273 20.7201 14.9094C20.7256 14.7812 20.7647 14.6691 20.8374 14.573Z" fill="#D0D1D3"/>
    <path fill-rule="evenodd" clip-rule="evenodd" d="M20.4857 15.6384C20.077 15.5638 19.6469 15.5265 19.1955 15.5263C18.744 15.5265 18.3139 15.5638 17.9053 15.6384C17.8522 15.5987 17.8327 15.5426 17.8466 15.4702H20.5443C20.5582 15.5426 20.5387 15.5987 20.4857 15.6384Z" fill="#B4B5B8"/>
    <path fill-rule="evenodd" clip-rule="evenodd" d="M20.4857 15.6385C20.2806 16.2271 20.0851 16.8253 19.8992 17.4328C19.8685 17.4716 19.8293 17.4996 19.7819 17.5169C19.3714 17.5543 18.9609 17.5543 18.5504 17.5169C18.5211 17.4889 18.4917 17.4608 18.4624 17.4328C18.2434 16.8434 18.0577 16.2454 17.9053 15.6385C18.3139 15.5639 18.744 15.5265 19.1955 15.5264C19.6469 15.5265 20.0771 15.5639 20.4857 15.6385Z" fill="#242931"/>
    <path fill-rule="evenodd" clip-rule="evenodd" d="M31.6284 30.8337C31.7144 30.7862 31.7633 30.7114 31.775 30.6094C31.8226 30.3745 31.8128 30.1502 31.7457 29.9365C31.5729 29.2575 31.1233 28.8556 30.3968 28.731C22.8315 28.7123 15.2662 28.6936 7.70081 28.6749C6.9865 28.5055 6.47822 28.1037 6.17601 27.4694C6.02183 26.9256 6.02183 26.3835 6.17601 25.8433C6.49176 25.159 7.03911 24.7572 7.8181 24.6378C15.3834 24.6191 22.9488 24.6004 30.5141 24.5817C31.4161 24.3362 31.8364 23.7661 31.775 22.8716C31.6084 22.2637 31.2076 21.8805 30.5728 21.7221C26.7413 21.7035 22.9097 21.6847 19.0781 21.6661C19.0293 21.6193 18.9804 21.5726 18.9315 21.5259C18.9022 20.4046 18.8924 19.2832 18.9022 18.1616H19.4887C19.4789 19.0777 19.4887 19.9935 19.518 20.9091C19.5399 20.9605 19.5693 21.0072 19.606 21.0493C23.2225 21.0679 26.839 21.0867 30.4555 21.1053C32.0786 21.5271 32.6552 22.5083 32.1855 24.0491C31.8272 24.69 31.2701 25.0731 30.5141 25.1985C22.9293 25.2172 15.3443 25.2359 7.75946 25.2546C6.62712 25.7095 6.32409 26.4665 6.85044 27.5255C7.07934 27.8265 7.38236 28.0227 7.75946 28.1142C15.4047 28.1148 23.0483 28.1522 30.6901 28.2264C31.7368 28.4712 32.3037 29.1067 32.3908 30.1328C32.35 31.1988 31.8026 31.8903 30.7487 32.2074C22.5383 32.2448 14.3278 32.2448 6.11737 32.2074C5.96096 32.0392 6.11737 31.7028 6.11737 31.7028C14.2496 31.6841 22.3819 31.6654 30.5141 31.6467C31.013 31.534 31.3844 31.263 31.6284 30.8337Z" fill="#272C34"/>
    <path fill-rule="evenodd" clip-rule="evenodd" d="M6.17595 25.8433C6.02177 26.3834 6.02177 26.9255 6.17595 27.4693C6.10012 27.3941 6.05127 27.3006 6.02934 27.189C5.99022 26.8339 5.99022 26.4787 6.02934 26.1236C6.05127 26.012 6.10012 25.9185 6.17595 25.8433Z" fill="#54575E"/>
    <path fill-rule="evenodd" clip-rule="evenodd" d="M31.7457 29.9365C31.8129 30.1502 31.8227 30.3745 31.775 30.6094C31.7633 30.7114 31.7144 30.7862 31.6284 30.8337C31.7272 30.5434 31.7662 30.2444 31.7457 29.9365Z" fill="#7B7E83"/>
</svg>
